<?xml version="1.0" encoding="UTF-8"?>
<svg xmlns="http://www.w3.org/2000/svg" xmlns:xlink="http://www.w3.org/1999/xlink" width="20.600mm" height="113.000mm" viewBox="-176.600311 89.716278 20.600006 113.000000">
    <path transform="matrix(-1,0,0,1,0,0)" style="stroke:none;fill:#ff0000;fill-rule:evenodd" d="M166.600311,89.716278L166.560303,89.756279L162.600311,93.716278L158.600311,97.716278L158.368317,97.948273L156.752319,99.564278L156.000305,100.316277L156.000305,102.013321L156.000305,115.948273L156.000305,132.332275L156.000305,148.716278L156.000305,165.100281L156.000305,169.692993L156.000305,181.484283L156.000305,190.419235L156.000305,190.419281L156.000305,192.116272L158.368317,194.484283L161.752319,197.868286L166.560303,202.67627L166.600311,202.716278L167.35231,201.964279L167.449387,201.867188L170.319611,198.996979L170.320618,198.995972L170.498093,198.818497L170.499634,198.816956L170.656311,198.660278L171.448303,197.868286L173.376999,195.93959L174.752319,194.56427L176.249313,193.067276L176.600311,192.716278L176.600311,189.67627L176.600311,181.484283L176.600311,165.100281L176.600311,148.716278L176.600311,132.332275L176.600311,115.948273L176.600311,99.716278L176.448303,99.564278L176.249313,99.36528L174.752319,97.868279L173.376999,96.492966L173.201065,96.317032L173.197998,96.313957L172.35231,95.468277L170.656311,93.772278L170.320618,93.436584L168.256317,91.372276L167.449387,90.565353L167.44931,90.565277L166.600311,89.716278z"/>
</svg>
